<svg width="32" height="32" fill="none" xmlns="http://www.w3.org/2000/svg"><g clip-path="url(#clip0)" fill="#10375C"><path d="M16 29a2 2 0 100-4 2 2 0 000 4zm7.62-9.2c-1.686-1.47-3.898-2.8-6.103-2.8h-2.034c-2.205 0-4.417 1.33-6.103 2.8-.509.443-.504 1.419 0 1.866.253.225.683 0 1.017 0 .33 0 .764.22 1.017 0 1.2-1.046 2.545-1.866 4.069-1.866h2.034c1.524 0 2.869.82 4.069 1.866.509.443 1.53.447 2.034 0 .504-.447.509-1.423 0-1.866zM33.628 9.735C29.454 5.633 22.586 3 16.496 3 10.407 3 4.546 5.633.372 9.735c-.478.47-.513 1.486 0 1.924.513.438 1.537.47 2.015 0a20.139 20.139 0 0114.11-5.773c5.376 0 11.427 2.148 15.116 5.773.25.246.667 0 1.007 0 .31 0 .763.21 1.008 0 .513-.438.478-1.454 0-1.924z"/><path d="M29.624 14.76C26.504 11.943 20.706 10 16.49 10c-4.218 0-7.996 1.944-11.114 4.76-.5.45-.503 1.456 0 1.903.503.447 1.521.451 2.02 0 2.633-2.377 5.566-3.807 9.094-3.807 3.527 0 8.48 1.43 11.113 3.807.251.227.68 0 1.01 0 .328 0 .76.223 1.011 0 .503-.447.5-1.453 0-1.904z"/></g><defs><clipPath id="clip0"><path fill="#fff" d="M0 0h32v32H0z"/></clipPath></defs></svg>