<svg width="32" height="32" fill="none" xmlns="http://www.w3.org/2000/svg"><path d="M30 29v-9c1.036-.854 2-1.565 2-3v-2L17 6V5h5V0h-7v6L0 15v2c0 1.445.951 2.146 2 3v9H0v2h32v-2h-2zM17 2h3v1h-3V2zm12 13h-5l-4-5 9 5zm-12-5l5 5h-5v-5zm6 7c-.19 1.36-1.574 3-3 3s-2.81-1.64-3-3h6zm-13-2l5-5v5h-5zm5 2c-.19 1.36-1.574 3-3 3s-2.81-1.64-3-3h6zm-3-7l-4 5H3l9-5zM2 17h5c-.19 1.36-.574 3-2 3-1.426 0-2.81-1.64-3-3zm6 12H4v-8c.355.085.619 0 1 0 1.537 0 2.142.133 3-1 .858 1.133 2.462 1 4 1 .973 0 2.25.503 3 0-.223 1.12-.438 1.998-1 3-.91 1.622-2.408 3.02-4 4l-2 1zm3 0c1.728-1.131 2.993-2.206 4-4 .26-.464.8-1.509 1-2 .2.491.74 1.536 1 2 1.007 1.794 2.272 2.869 4 4H11zm17 0h-4l-2-1c-1.592-.98-3.09-2.378-4-4-.56-.997-.777-1.886-1-3 .746.492 2.038 0 3 0 1.537 0 3.142.133 4-1 .858 1.133 1.462 1 3 1 .39 0 .638.089 1 0v8zm-1-9c-1.426 0-2.81-1.64-3-3h6c-.19 1.36-1.574 3-3 3z" fill="#10375C"/></svg>